<svg xmlns="http://www.w3.org/2000/svg" width="10.194" height="10.037" viewBox="0 0 10.194 10.037">
  <path id="Path_4366" data-name="Path 4366" d="M83.792,3.563a.524.524,0,0,1-.4-.3L82.257.807a.524.524,0,0,0-.952,0l-1.13,2.456a.524.524,0,0,1-.4.3l-2.633.359a.524.524,0,0,0-.3.892l1.951,1.923a.524.524,0,0,1,.148.465l-.486,2.72a.524.524,0,0,0,.772.549l2.3-1.294a.524.524,0,0,1,.514,0l2.3,1.294a.524.524,0,0,0,.773-.549L84.622,7.2a.524.524,0,0,1,.148-.465l1.951-1.923a.524.524,0,0,0-.3-.892Z" transform="translate(-76.684 -0.502)" fill="#1756cc" fill-rule="evenodd"/>
</svg>
