<svg xmlns="http://www.w3.org/2000/svg" width="13.5" height="19.7" viewBox="0 0 13.5 19.7">
  <path id="Path_4380" data-name="Path 4380" d="M13.485,15.779a.985.985,0,0,0-.193-.019H13.2l.591-2.358a6.872,6.872,0,0,0,.157-2.494l-.634-5.272a2.3,2.3,0,0,0-2.282-2.025h-.886a1.625,1.625,0,0,0,.336-.985V1.642A1.644,1.644,0,0,0,8.84,0H6.213A1.644,1.644,0,0,0,4.572,1.642v.985a1.625,1.625,0,0,0,.337.985H4.022A2.3,2.3,0,0,0,1.74,5.636l-.634,5.272A6.873,6.873,0,0,0,1.263,13.4l.59,2.358H1.761A.985.985,0,0,0,.8,16.939l.394,1.97a.987.987,0,0,0,.965.792H12.9a.987.987,0,0,0,.965-.792l.394-1.97A.985.985,0,0,0,13.485,15.779Zm-2.347-11.5a1.639,1.639,0,0,1,1.524,1.435l.632,5.273a6.21,6.21,0,0,1-.142,2.257h0l-.628,2.517H11.138ZM5.228,1.642A.985.985,0,0,1,6.213.657H8.84a.985.985,0,0,1,.985.985v.985a.985.985,0,0,1-.985.985H6.213a.985.985,0,0,1-.985-.985ZM4.572,4.268h5.91v.985H4.572Zm0,1.642h5.91V7.223H4.572Zm2.491,4.925-.521.521-.521-.521.521-.521ZM7.006,9.85l.521-.521.521.521-.521.521ZM7.527,11.3l.521.521-.521.521-.521-.521Zm.464-.464.521-.521.521.521-.521.521ZM9.5,11.3l.521.521-.521.521-.521-.521ZM8.976,9.85,9.5,9.329l.521.521-.521.521Zm0-1.97h1.041L9.5,8.4Zm.056.985-.521.521-.521-.521.521-.521ZM7.527,8.4,7.006,7.88H8.047Zm-.464.464-.521.521-.521-.521.521-.521ZM5.557,8.4,5.036,7.88H6.077ZM6.077,9.85l-.521.521L5.036,9.85l.521-.521Zm0,1.97-.521.521-.521-.521.521-.521Zm0,1.97H5.036l.521-.521Zm-.056-.985.521-.521.521.521-.521.521Zm1.506.464.521.521H7.006Zm.464-.464.521-.521.521.521-.521.521Zm1.506.464.521.521H8.976Zm.464-.464.521-.521v1.041Zm0-1.97.521-.521v1.041Zm0-1.97.521-.521V9.386ZM4.572,8.344l.521.521-.521.521Zm0,1.97.521.521-.521.521Zm0,1.97.521.521-.521.521Zm0,2.162h5.91V15.76H4.572Zm5.253,1.97V17.73h-4.6V16.417ZM1.758,10.986l.632-5.273A1.639,1.639,0,0,1,3.915,4.278V15.76H2.53L1.9,13.243A6.21,6.21,0,0,1,1.758,10.986Zm11.856,5.823-.394,1.97a.328.328,0,0,1-.322.263H2.155a.328.328,0,0,1-.322-.263l-.394-1.97a.328.328,0,0,1,.322-.394H4.572v1.642a.328.328,0,0,0,.328.328h5.253a.328.328,0,0,0,.328-.328v-1.64h2.811a.329.329,0,0,1,.322.393Z" transform="translate(-0.777)"/>
</svg>
