<svg xmlns="http://www.w3.org/2000/svg" width="35.373" height="36.95" viewBox="0 0 35.373 36.95">
  <g id="Group_2183" data-name="Group 2183" transform="translate(-73.465 -424.694)">
    <g id="Group_2159" data-name="Group 2159" transform="translate(73.465 424.694)">
      <path id="Path_4306" data-name="Path 4306" d="M19.586,24.821A4.516,4.516,0,0,0,24.1,20.31V17.477a1.7,1.7,0,1,0-1.083,0V20.31a3.428,3.428,0,1,1-6.856,0V17.477a1.7,1.7,0,1,0-1.083,0V20.31A4.516,4.516,0,0,0,19.586,24.821Zm3.969-9.563a.613.613,0,1,1-.613.613A.614.614,0,0,1,23.555,15.258Zm-7.939,0a.613.613,0,1,1-.613.613A.613.613,0,0,1,15.616,15.258Z" transform="translate(6.723 7.649)"/>
      <path id="Path_4307" data-name="Path 4307" d="M2.4,36.95H34.493a1.392,1.392,0,0,0,1.383-1.543l-.632-5.766a.541.541,0,0,0-1.076.118l.632,5.766a.309.309,0,0,1-.307.343H19.149a.309.309,0,0,1-.307-.343L20.4,21.28A.309.309,0,0,1,20.71,21H32.932a.309.309,0,0,1,.307.275l.652,5.952a.541.541,0,1,0,1.076-.118l-.652-5.952a1.39,1.39,0,0,0-1.383-1.24H26.944l-.836-7.628a1.886,1.886,0,0,0-1.877-1.682H22.078V7.526a7.526,7.526,0,1,0-15.051,0v3.086H4.873A1.886,1.886,0,0,0,3,12.295L.523,34.856A1.889,1.889,0,0,0,2.4,36.95Zm-.8-1.976L4.072,12.413a.8.8,0,0,1,.8-.718H7.026V13.71a1.761,1.761,0,1,0,1.083,0V11.695h5.18a.541.541,0,0,0,0-1.083H8.109V7.526A6.443,6.443,0,0,1,21,7.526v3.086h-5.18a.541.541,0,1,0,0,1.083H21V13.71a1.761,1.761,0,1,0,1.082,0V11.695h2.153a.8.8,0,0,1,.8.718l.823,7.51H20.71a1.389,1.389,0,0,0-1.383,1.24L17.766,35.406a1.484,1.484,0,0,0,.027.461H2.4A.8.8,0,0,1,1.6,34.973ZM7.567,14.707a.679.679,0,1,1-.679.679A.679.679,0,0,1,7.567,14.707Zm13.969,0a.679.679,0,1,1-.679.679A.679.679,0,0,1,21.536,14.707Z" transform="translate(-0.512)"/>
    </g>
  </g>
</svg>
