<svg xmlns="http://www.w3.org/2000/svg" xmlns:xlink="http://www.w3.org/1999/xlink" width="38" height="36" viewBox="0 0 38 36">
  <defs>
    <clipPath id="clip-path">
      <rect id="Rectangle_2561" data-name="Rectangle 2561" width="38" height="36" transform="translate(-0.138 0.477)" fill="#fff"/>
    </clipPath>
  </defs>
  <g id="Group_2126" data-name="Group 2126" transform="translate(0.138 -0.477)" clip-path="url(#clip-path)">
    <path id="Path_4320" data-name="Path 4320" d="M32.629,16.292,20.516,2.968A8.749,8.749,0,0,0,14,0H4.67A3.238,3.238,0,0,0,1.6,3.377V39.848a.647.647,0,0,0,.614.675H20.289a4.256,4.256,0,0,0,3.773-2.464,19.089,19.089,0,0,1,7.226-7.949,4.818,4.818,0,0,0,2.24-4.15V18.679A3.532,3.532,0,0,0,32.629,16.292ZM32.3,25.961a3.442,3.442,0,0,1-1.6,2.965,20.369,20.369,0,0,0-7.715,8.487,3.04,3.04,0,0,1-2.7,1.76H2.828V3.377A1.941,1.941,0,0,1,4.67,1.351H14a7.584,7.584,0,0,1,5.644,2.572L31.761,17.247a2.149,2.149,0,0,1,.539,1.433Z" transform="translate(1.479 -1.753)"/>
    <path id="Path_4321" data-name="Path 4321" d="M28.808,15.981,17.712,3.776A6.416,6.416,0,0,0,12.937,1.6H5.042A1.941,1.941,0,0,0,3.2,3.626V16.459a.647.647,0,0,0,.614.675h24.56a.617.617,0,0,0,.567-.417A.726.726,0,0,0,28.808,15.981Zm-9.644-.2H4.428V3.626a.647.647,0,0,1,.614-.675h7.895a5.25,5.25,0,0,1,3.908,1.78l2.32,2.552Zm1.228,0V8.634l6.5,7.15Z" transform="translate(2.335 -0.652)"/>
    <path id="Path_4322" data-name="Path 4322" d="M20.726,12H17.042A1.941,1.941,0,0,0,15.2,14.026a1.941,1.941,0,0,0,1.842,2.026h3.684a1.941,1.941,0,0,0,1.842-2.026A1.941,1.941,0,0,0,20.726,12Zm0,2.7H17.042a.678.678,0,0,1,0-1.351h3.684a.678.678,0,0,1,0,1.351Z" transform="translate(8.755 6.509)"/>
  </g>
</svg>
