<svg xmlns="http://www.w3.org/2000/svg" width="35.494" height="40.03" viewBox="0 0 35.494 40.03">
  <g id="broken-link" transform="translate(0 -0.093)">
    <g id="Group_2130" data-name="Group 2130" transform="translate(2.961 3.053)">
      <g id="Group_2129" data-name="Group 2129">
        <path id="Path_4333" data-name="Path 4333" d="M48.444,47.468l-4.449-4.434a.739.739,0,1,0-1.044,1.046L47.4,48.515a.739.739,0,1,0,1.044-1.046Z" transform="translate(-42.734 -42.819)" fill="#0a0a0a"/>
      </g>
    </g>
    <g id="Group_2132" data-name="Group 2132" transform="translate(0.005 11.828)">
      <g id="Group_2131" data-name="Group 2131">
        <path id="Path_4334" data-name="Path 4334" d="M6.72,149.48H.808a.739.739,0,1,0,0,1.478H6.72a.739.739,0,1,0,0-1.478Z" transform="translate(-0.069 -149.48)" fill="#0a0a0a"/>
      </g>
    </g>
    <g id="Group_2134" data-name="Group 2134" transform="translate(10.366 0.097)">
      <g id="Group_2133" data-name="Group 2133">
        <path id="Path_4335" data-name="Path 4335" d="M150.355.147a.739.739,0,0,0-.739.739V6.8a.739.739,0,0,0,1.478,0V.886A.739.739,0,0,0,150.355.147Z" transform="translate(-149.616 -0.147)" fill="#0a0a0a"/>
      </g>
    </g>
    <g id="Group_2136" data-name="Group 2136" transform="translate(26.61 29.773)">
      <g id="Group_2135" data-name="Group 2135">
        <path id="Path_4336" data-name="Path 4336" d="M389.773,367.468l-4.449-4.434a.738.738,0,1,0-1.042,1.046l4.449,4.434a.738.738,0,1,0,1.042-1.046Z" transform="translate(-384.064 -362.819)" fill="#0a0a0a"/>
      </g>
    </g>
    <g id="Group_2138" data-name="Group 2138" transform="translate(28.103 25.234)">
      <g id="Group_2137" data-name="Group 2137">
        <path id="Path_4337" data-name="Path 4337" d="M412.267,320.147h-5.912a.739.739,0,1,0,0,1.478h5.912a.739.739,0,1,0,0-1.478Z" transform="translate(-405.616 -320.147)" fill="#0a0a0a"/>
      </g>
    </g>
    <g id="Group_2140" data-name="Group 2140" transform="translate(23.654 31.251)">
      <g id="Group_2139" data-name="Group 2139">
        <path id="Path_4338" data-name="Path 4338" d="M342.141,384.147a.739.739,0,0,0-.739.739V390.8a.739.739,0,1,0,1.478,0v-5.912A.739.739,0,0,0,342.141,384.147Z" transform="translate(-341.402 -384.147)" fill="#0a0a0a"/>
      </g>
    </g>
    <g id="Group_2142" data-name="Group 2142" transform="translate(14.509 0.093)">
      <g id="Group_2141" data-name="Group 2141">
        <path id="Path_4339" data-name="Path 4339" d="M228.436,2.037a6.659,6.659,0,0,0-9.405,0l-6.45,6.45a.739.739,0,0,0,1.045,1.045l6.45-6.45a5.173,5.173,0,0,1,7.315,7.317l-9.405,9.407a5.179,5.179,0,0,1-7.316,0,.739.739,0,0,0-1.045,1.045,6.659,6.659,0,0,0,9.407,0l9.405-9.407A6.658,6.658,0,0,0,228.436,2.037Z" transform="translate(-209.408 -0.093)" fill="#0a0a0a"/>
      </g>
    </g>
    <g id="Group_2144" data-name="Group 2144" transform="translate(0 17.42)">
      <g id="Group_2143" data-name="Group 2143">
        <path id="Path_4340" data-name="Path 4340" d="M20.757,186.471a6.658,6.658,0,0,0-9.407,0l-9.405,9.407a6.651,6.651,0,0,0,9.407,9.407l6.45-6.45a.739.739,0,1,0-1.045-1.045l-6.45,6.45a5.173,5.173,0,0,1-7.315-7.316l9.4-9.406a5.183,5.183,0,0,1,7.317,0,.739.739,0,1,0,1.045-1.045Z" transform="translate(0 -184.525)" fill="#0a0a0a"/>
      </g>
    </g>
  </g>
</svg>
