<svg id="car-key" xmlns="http://www.w3.org/2000/svg" width="18.209" height="16.004" viewBox="0 0 18.209 16.004">
  <g id="Group_2114" data-name="Group 2114" transform="translate(0 8.891)">
    <g id="Group_2113" data-name="Group 2113">
      <g id="Group_2112" data-name="Group 2112">
        <g id="Group_2106" data-name="Group 2106" transform="translate(3.45)">
          <path id="Path_4292" data-name="Path 4292" d="M111.033,281.274a1.177,1.177,0,0,0-1.295.238l-1.9,1.829a2.137,2.137,0,0,1-2.124,1.927h-3.2a.533.533,0,1,1,0-1.067h3.178a1.082,1.082,0,0,0,1.089-1.035,1.068,1.068,0,0,0-1.066-1.1h-2.9l-1.289-.645a4,4,0,0,0-3.846.148l-.681.408v5.091l3.4,1.021a.533.533,0,0,0,.153.022h5.374a3.359,3.359,0,0,0,2.657-1.291l2.917-3.712a1.2,1.2,0,0,0,.255-.737A1.177,1.177,0,0,0,111.033,281.274Z" transform="translate(-97 -281)"/>
        </g>
        <g id="Group_2111" data-name="Group 2111">
          <g id="Group_2110" data-name="Group 2110">
            <g id="Group_2109" data-name="Group 2109">
              <g id="Group_2108" data-name="Group 2108">
                <g id="Group_2107" data-name="Group 2107">
                  <path id="Path_4293" data-name="Path 4293" d="M2.383,283.134v-.889A1.245,1.245,0,0,0,1.138,281h-.6a.533.533,0,0,0-.533.533v1.6Z" transform="translate(0 -281)"/>
                  <path id="Path_4294" data-name="Path 4294" d="M0,371v3.379a.533.533,0,0,0,.533.533h.6a1.245,1.245,0,0,0,1.245-1.245V371Z" transform="translate(0 -367.799)"/>
                </g>
              </g>
            </g>
          </g>
        </g>
      </g>
    </g>
  </g>
  <g id="Group_2115" data-name="Group 2115" transform="translate(2.169)">
    <path id="Path_4295" data-name="Path 4295" d="M247.935,92.6h-.893a.533.533,0,0,0-.491.324l-.217.509h-1.423l-.217-.509a.533.533,0,0,0-.491-.324h-.893v.833a.533.533,0,0,1-1.067,0V92.6H241v2.49h6.491a.533.533,0,0,0,.426-.213l.444-.59a.533.533,0,0,0,.107-.321V93.13A.533.533,0,0,0,247.935,92.6Z" transform="translate(-234.598 -90.405)"/>
    <path id="Path_4296" data-name="Path 4296" d="M65.392,31.649l-2.4-.6A1.6,1.6,0,0,0,61,32.6v1.3h1.6a.533.533,0,0,1,0,1.067H61v1.3a1.6,1.6,0,0,0,1.6,1.6,1.615,1.615,0,0,0,.392-.048l2.4-.6a1.243,1.243,0,0,0,.943-1.208V32.857A1.243,1.243,0,0,0,65.392,31.649Z" transform="translate(-61 -31)"/>
  </g>
</svg>
