<svg xmlns="http://www.w3.org/2000/svg" width="23.8" height="22.4" viewBox="0 0 23.8 22.4">
  <path id="Path_4398" data-name="Path 4398" d="M147.325,98.684c-6.571,0-11.9,5.014-11.9,11.2s5.328,11.2,11.9,11.2,11.9-5.014,11.9-11.2S153.9,98.684,147.325,98.684Zm5.141,7.542-5.6,7.3a.816.816,0,0,1-.3.243.889.889,0,0,1-.771,0,.829.829,0,0,1-.3-.243l-3.312-4.32a.2.2,0,0,1,.173-.318H143.6a.862.862,0,0,1,.688.333l1.891,2.47,4.176-5.451a.87.87,0,0,1,.688-.331h1.246A.2.2,0,0,1,152.466,106.226Z" transform="translate(-135.426 -98.684)" fill="#27ae60"/>
</svg>
