<svg id="Group_2173" data-name="Group 2173" xmlns="http://www.w3.org/2000/svg" width="16.61" height="19.234" viewBox="0 0 16.61 19.234">
  <path id="Path_4308" data-name="Path 4308" d="M15.611,11.844A2.244,2.244,0,0,0,13.367,9.6H9.521a.321.321,0,0,0,0,.641h3.847a1.6,1.6,0,1,1-1.6,1.6.321.321,0,1,0-.641,0,2.244,2.244,0,1,0,4.488,0Z" transform="translate(-3.295 -1.907)"/>
  <path id="Path_4309" data-name="Path 4309" d="M18.5,8H9.521a.321.321,0,1,0,0,.641H18.5a1.6,1.6,0,1,1-1.6,1.6.321.321,0,1,0-.641,0A2.244,2.244,0,1,0,18.5,8Z" transform="translate(-4.13 -1.589)"/>
  <path id="Path_4310" data-name="Path 4310" d="M9.521,4.488h3.847a2.244,2.244,0,1,0-2.244-2.244.321.321,0,1,0,.641,0,1.6,1.6,0,1,1,1.6,1.6H9.521a.321.321,0,0,0,0,.641Z" transform="translate(-3.295 0)"/>
  <path id="Path_4311" data-name="Path 4311" d="M9.521,6.088H18.5a2.244,2.244,0,1,0-2.244-2.244.321.321,0,0,0,.641,0,1.6,1.6,0,1,1,1.6,1.6H9.521a.321.321,0,1,0,0,.641Z" transform="translate(-4.13 -0.318)"/>
  <path id="Path_4312" data-name="Path 4312" d="M2.8,1.121V18.751h.641V.8H2.8Z" transform="translate(-0.877 -0.159)"/>
  <path id="Path_4313" data-name="Path 4313" d="M.4,1.921V17.949a.321.321,0,0,0,.321.321h.962V1.6H.72A.321.321,0,0,0,.4,1.921Z" transform="translate(-0.4 -0.318)"/>
  <path id="Path_4314" data-name="Path 4314" d="M4.4,15.564V16.58l1.31,1.31a.36.36,0,0,0,.508-.51Z" transform="translate(-1.576 -3.091)"/>
  <path id="Path_4315" data-name="Path 4315" d="M4.4,10.964v1.017l1.31,1.31a.36.36,0,0,0,.508-.51Z" transform="translate(-1.576 -2.178)"/>
  <path id="Path_4316" data-name="Path 4316" d="M4.4,6.365V7.382l1.31,1.31a.359.359,0,0,0,.508-.509Z" transform="translate(-1.576 -1.264)"/>
  <path id="Path_4317" data-name="Path 4317" d="M6.1,4.171a.36.36,0,0,0,.116-.587L4.4,1.766V2.782l1.31,1.31A.353.353,0,0,0,6.1,4.171Z" transform="translate(-1.576 -0.351)"/>
  <path id="Path_4318" data-name="Path 4318" d="M4.4,20.163V21.18l1.31,1.31a.36.36,0,0,0,.508-.51Z" transform="translate(-1.576 -4.004)"/>
  <path id="Path_4319" data-name="Path 4319" d="M21.929,17.123a.321.321,0,0,0-.481-.278l-.278.16-.16-.277a.321.321,0,1,0-.555.321l.16.277-1.462.844V16.482h.32a.321.321,0,1,0,0-.641h-.32v-.321a.321.321,0,0,0-.641,0v.321h-.321a.321.321,0,1,0,0,.641h.321v1.688l-1.462-.844.16-.277a.321.321,0,1,0-.555-.321l-.16.277-.278-.16a.321.321,0,1,0-.321.556l.278.16-.16.278a.321.321,0,1,0,.555.321l.16-.278,1.462.845-1.462.844-.16-.277a.321.321,0,1,0-.555.321l.16.278-.278.16a.321.321,0,1,0,.321.556l.278-.16.16.278a.321.321,0,0,0,.555-.321l-.16-.278,1.462-.845V20.97h-.321a.321.321,0,1,0,0,.641h.321v.321a.321.321,0,0,0,.641,0v-.321h.32a.321.321,0,1,0,0-.641h-.32V19.281l1.462.844-.16.278a.321.321,0,1,0,.555.321l.16-.278.278.16a.321.321,0,0,0,.321-.556l-.278-.16.16-.278a.321.321,0,1,0-.555-.321l-.16.277-1.462-.844,1.462-.844.16.278a.321.321,0,1,0,.555-.321l-.16-.278.278-.16A.32.32,0,0,0,21.929,17.123Z" transform="translate(-5.428 -3.019)"/>
</svg>
