<svg xmlns="http://www.w3.org/2000/svg" xmlns:xlink="http://www.w3.org/1999/xlink" width="13.503" height="19.7" viewBox="0 0 13.503 19.7">
  <defs>
    <clipPath id="clip-path">
      <rect id="Rectangle_2636" data-name="Rectangle 2636" width="13.503" height="19.7" fill="#fff"/>
    </clipPath>
  </defs>
  <g id="Group_2172" data-name="Group 2172" clip-path="url(#clip-path)">
    <path id="Path_4381" data-name="Path 4381" d="M12.677,8.8,8.353,1.6A2.83,2.83,0,0,0,6.028,0H2.7c-.6,0-1.1.817-1.1,1.824v19.7c0,.2.1.365.219.365H8.272c.561,0,1.078-.51,1.347-1.331a9.949,9.949,0,0,1,2.58-4.293,3.1,3.1,0,0,0,.8-2.242V10.089A2.54,2.54,0,0,0,12.677,8.8Zm-.117,5.222a2.215,2.215,0,0,1-.571,1.6,10.616,10.616,0,0,0-2.754,4.584c-.192.586-.561.951-.962.951H2.038V1.824c0-.6.294-1.094.658-1.094H6.028A2.453,2.453,0,0,1,8.043,2.119l4.324,7.2a1.547,1.547,0,0,1,.192.774Z" transform="translate(-0.547 -3.282)"/>
    <path id="Path_4382" data-name="Path 4382" d="M12.342,9.367,8.381,2.775A2.075,2.075,0,0,0,6.676,1.6H3.858c-.363,0-.658.49-.658,1.094V9.625c0,.2.1.365.219.365h8.768c.089,0,.169-.089.2-.225A.554.554,0,0,0,12.342,9.367ZM8.9,9.26H3.638V2.694c0-.2.1-.365.219-.365H6.676a1.7,1.7,0,0,1,1.395.962L8.9,4.669Zm.438,0V5.4l2.32,3.862Z" transform="translate(-1.27 -3.423)"/>
    <path id="Path_4383" data-name="Path 4383" d="M17.173,12H15.858c-.363,0-.658.49-.658,1.094s.294,1.094.658,1.094h1.315c.363,0,.658-.49.658-1.094S17.536,12,17.173,12Zm0,1.459H15.858c-.121,0-.219-.163-.219-.365s.1-.365.219-.365h1.315c.121,0,.219.163.219.365S17.294,13.459,17.173,13.459Z" transform="translate(-6.695 -4.339)"/>
  </g>
</svg>
