<svg xmlns="http://www.w3.org/2000/svg" width="37" height="37" viewBox="0 0 37 37">
  <g id="Hertz" transform="translate(-0.422 0.578)">
    <g id="Group_1754" data-name="Group 1754" transform="translate(0.5 -0.5)">
      <path id="Path_1563" data-name="Path 1563" d="M18.5,0A18.5,18.5,0,1,1,0,18.5,18.5,18.5,0,0,1,18.5,0Z" transform="translate(-0.078 -0.078)" fill="#fbb000"/>
      <path id="Path_1560" data-name="Path 1560" d="M58.019,73.371A15.352,15.352,0,1,1,73.37,58.02,15.369,15.369,0,0,1,58.019,73.371Z" transform="translate(-39.92 -39.274)" fill="#fbb000"/>
    </g>
    <path id="Path_1562" data-name="Path 1562" d="M144.635,136a8.635,8.635,0,1,0,8.635,8.635A8.635,8.635,0,0,0,144.635,136Zm3.309,13.141h-1.517v-3.675h-3.585v3.675h-1.517V140.13h1.517v3.675h3.585V140.13h1.517Z" transform="translate(-126.036 -126.39)"/>
  </g>
</svg>
