<svg xmlns="http://www.w3.org/2000/svg" width="27.483" height="24.618" viewBox="0 0 27.483 24.618">
  <path id="Path_4357" data-name="Path 4357" d="M29.64,7.869l-8.245-4.1a1.38,1.38,0,0,0-1.23,0l-7.629,3.8L4.9,3.767a1.377,1.377,0,0,0-1.815.558,1.363,1.363,0,0,0-.174.666V22.769a1.368,1.368,0,0,0,.76,1.224l8.245,4.1a1.38,1.38,0,0,0,1.23,0l7.629-3.8,7.631,3.8A1.373,1.373,0,0,0,30.4,26.871V9.093A1.368,1.368,0,0,0,29.64,7.869ZM13.91,9.938l5.5-2.735v14.72l-5.5,2.735ZM5.665,7.2l5.5,2.735v14.72l-5.5-2.735ZM27.652,24.659l-5.5-2.735V7.2l5.5,2.735Z" transform="translate(-2.916 -3.622)" fill="#1471c5"/>
</svg>
