<svg id="user" xmlns="http://www.w3.org/2000/svg" width="13.567" height="16.262" viewBox="0 0 13.567 16.262">
  <path id="Path_4271" data-name="Path 4271" d="M90.948,7.833a3.79,3.79,0,0,0,2.769-1.147,3.79,3.79,0,0,0,1.147-2.769,3.79,3.79,0,0,0-1.147-2.769,3.916,3.916,0,0,0-5.539,0,3.79,3.79,0,0,0-1.147,2.769,3.79,3.79,0,0,0,1.148,2.769A3.791,3.791,0,0,0,90.948,7.833Zm0,0" transform="translate(-84.267 0)"/>
  <path id="Path_4272" data-name="Path 4272" d="M13.534,251.966a9.675,9.675,0,0,0-.132-1.028,8.1,8.1,0,0,0-.253-1.033,5.1,5.1,0,0,0-.425-.963,3.636,3.636,0,0,0-.64-.835,2.824,2.824,0,0,0-.92-.578,3.179,3.179,0,0,0-1.174-.213,1.192,1.192,0,0,0-.637.27c-.191.124-.414.268-.663.428a3.8,3.8,0,0,1-.858.378,3.332,3.332,0,0,1-2.1,0,3.792,3.792,0,0,1-.857-.378c-.247-.158-.47-.3-.664-.428a1.19,1.19,0,0,0-.636-.27,3.176,3.176,0,0,0-1.174.213,2.821,2.821,0,0,0-.92.578,3.636,3.636,0,0,0-.64.834,5.113,5.113,0,0,0-.425.964,8.115,8.115,0,0,0-.253,1.033,9.639,9.639,0,0,0-.132,1.028c-.022.311-.033.634-.033.96a2.7,2.7,0,0,0,.8,2.043,2.887,2.887,0,0,0,2.067.754H10.7a2.886,2.886,0,0,0,2.066-.754,2.7,2.7,0,0,0,.8-2.043c0-.328-.011-.651-.033-.961Zm0,0" transform="translate(0 -239.461)"/>
</svg>
