<svg id="Group_429" data-name="Group 429" xmlns="http://www.w3.org/2000/svg" width="12" height="12" viewBox="0 0 12 12">
  <g id="Group_104" data-name="Group 104" transform="translate(0 0)">
    <path id="Path_279" data-name="Path 279" d="M5.92,0A6,6,0,1,0,12,5.919,6,6,0,0,0,5.92,0ZM5.9,9.652H5.869A.873.873,0,0,1,5.889,7.9h.03A.873.873,0,1,1,5.9,9.652ZM8.048,5.392a3.957,3.957,0,0,1-.716.641l-.366.253a1,1,0,0,0-.367.448.929.929,0,0,0-.057.375v.059h-1.4l0-.118a1.529,1.529,0,0,1,.231-1.009A5.946,5.946,0,0,1,6.421,5.2a1.1,1.1,0,0,0,.247-.252.888.888,0,0,0,.212-.518,1.013,1.013,0,0,0-.192-.6A.8.8,0,0,0,6,3.575a.752.752,0,0,0-.7.323,1.3,1.3,0,0,0-.212.7v.06H3.644l0-.062A2.192,2.192,0,0,1,4.582,2.7a2.466,2.466,0,0,1,1.357-.356,2.924,2.924,0,0,1,1.749.5A1.746,1.746,0,0,1,8.4,4.359a1.726,1.726,0,0,1-.348,1.034Zm0,0" transform="translate(0 0)" fill="#1756cc"/>
  </g>
</svg>
