<svg id="settings" xmlns="http://www.w3.org/2000/svg" width="15.418" height="15.418" viewBox="0 0 15.418 15.418">
  <path id="Path_4299" data-name="Path 4299" d="M8.193,15.418H7.225A1.421,1.421,0,0,1,5.806,14v-.327a6.224,6.224,0,0,1-.967-.4l-.232.232a1.419,1.419,0,0,1-2.007,0l-.684-.684a1.419,1.419,0,0,1,0-2.007l.232-.232a6.225,6.225,0,0,1-.4-.967H1.419A1.421,1.421,0,0,1,0,8.193V7.225A1.421,1.421,0,0,1,1.419,5.806h.327a6.226,6.226,0,0,1,.4-.967l-.232-.232a1.419,1.419,0,0,1,0-2.007L2.6,1.916a1.419,1.419,0,0,1,2.007,0l.232.232a6.23,6.23,0,0,1,.967-.4V1.419A1.421,1.421,0,0,1,7.225,0h.968A1.421,1.421,0,0,1,9.612,1.419v.327a6.224,6.224,0,0,1,.967.4l.232-.232a1.419,1.419,0,0,1,2.007,0L13.5,2.6a1.419,1.419,0,0,1,0,2.007l-.232.232a6.225,6.225,0,0,1,.4.967H14a1.421,1.421,0,0,1,1.419,1.419v.968A1.421,1.421,0,0,1,14,9.612h-.327a6.226,6.226,0,0,1-.4.967l.232.232a1.419,1.419,0,0,1,0,2.007l-.684.684a1.419,1.419,0,0,1-2.007,0l-.232-.232a6.23,6.23,0,0,1-.967.4V14A1.421,1.421,0,0,1,8.193,15.418Zm-3.2-3.1a5.324,5.324,0,0,0,1.38.573.452.452,0,0,1,.339.437V14a.517.517,0,0,0,.516.516h.968A.517.517,0,0,0,8.709,14v-.667a.452.452,0,0,1,.339-.437,5.324,5.324,0,0,0,1.38-.573.452.452,0,0,1,.549.069l.472.472a.516.516,0,0,0,.729,0l.684-.684a.516.516,0,0,0,0-.729l-.473-.473a.452.452,0,0,1-.069-.549,5.323,5.323,0,0,0,.573-1.38.452.452,0,0,1,.437-.339H14a.517.517,0,0,0,.516-.516V7.225A.517.517,0,0,0,14,6.709h-.667a.452.452,0,0,1-.437-.339,5.324,5.324,0,0,0-.573-1.38.452.452,0,0,1,.069-.549l.472-.472a.516.516,0,0,0,0-.729l-.684-.684a.516.516,0,0,0-.729,0l-.473.473a.452.452,0,0,1-.549.069,5.324,5.324,0,0,0-1.38-.573.452.452,0,0,1-.339-.437V1.419A.517.517,0,0,0,8.193.9H7.225a.517.517,0,0,0-.516.516v.667a.452.452,0,0,1-.339.437A5.324,5.324,0,0,0,4.99,3.1a.452.452,0,0,1-.549-.069l-.472-.472a.516.516,0,0,0-.729,0l-.684.684a.516.516,0,0,0,0,.729l.473.473A.452.452,0,0,1,3.1,4.99a5.323,5.323,0,0,0-.573,1.38.452.452,0,0,1-.437.339H1.419A.517.517,0,0,0,.9,7.225v.968a.517.517,0,0,0,.516.516h.667a.452.452,0,0,1,.437.339,5.324,5.324,0,0,0,.573,1.38.452.452,0,0,1-.069.549l-.472.472a.516.516,0,0,0,0,.729l.684.684a.516.516,0,0,0,.729,0l.473-.473a.454.454,0,0,1,.549-.069Z" transform="translate(0 0)"/>
  <path id="Path_4300" data-name="Path 4300" d="M147.955,151.309a3.355,3.355,0,1,1,3.355-3.355A3.358,3.358,0,0,1,147.955,151.309Zm0-5.806a2.451,2.451,0,1,0,2.451,2.451A2.454,2.454,0,0,0,147.955,145.5Z" transform="translate(-140.246 -140.246)"/>
</svg>
