<svg id="shopping-list" xmlns="http://www.w3.org/2000/svg" width="13.039" height="17.386" viewBox="0 0 13.039 17.386">
  <g id="Group_2117" data-name="Group 2117" transform="translate(3.26)">
    <g id="Group_2116" data-name="Group 2116">
      <path id="Path_4297" data-name="Path 4297" d="M165.976,1.087H164.8a1.63,1.63,0,0,0-3.074,0h-1.179A.543.543,0,0,0,160,1.63V3.8a.543.543,0,0,0,.543.543h5.433a.544.544,0,0,0,.543-.543V1.63A.544.544,0,0,0,165.976,1.087Z" transform="translate(-160)"/>
    </g>
  </g>
  <g id="Group_2119" data-name="Group 2119" transform="translate(0 2.173)">
    <g id="Group_2118" data-name="Group 2118" transform="translate(0)">
      <path id="Path_4298" data-name="Path 4298" d="M75.953,64H74.866v1.63a1.632,1.632,0,0,1-1.63,1.63H67.8a1.632,1.632,0,0,1-1.63-1.63V64H65.087A1.088,1.088,0,0,0,64,65.087V78.126a1.075,1.075,0,0,0,1.087,1.087H75.953a1.075,1.075,0,0,0,1.087-1.087V65.087A1.075,1.075,0,0,0,75.953,64Zm-5.592,9.621-2.173,2.173a.546.546,0,0,1-.769,0l-1.087-1.087a.543.543,0,0,1,.768-.768l.7.7,1.789-1.789a.544.544,0,0,1,.769.768Zm0-4.346-2.173,2.173a.546.546,0,0,1-.769,0l-1.087-1.087a.543.543,0,0,1,.768-.768l.7.7,1.789-1.789a.544.544,0,0,1,.769.768Zm3.962,5.592H72.15a.543.543,0,1,1,0-1.087h2.173a.543.543,0,0,1,0,1.087Zm0-4.346H72.15a.543.543,0,1,1,0-1.087h2.173a.543.543,0,0,1,0,1.087Z" transform="translate(-64 -64)"/>
    </g>
  </g>
</svg>
