<svg xmlns="http://www.w3.org/2000/svg" width="10.314" height="10.089" viewBox="0 0 10.314 10.089">
  <path id="Path_4367" data-name="Path 4367" d="M109.174,3.534a.524.524,0,0,1-.4-.3l-1.15-2.48a.524.524,0,0,0-.951,0l-1.15,2.48a.523.523,0,0,1-.4.3l-2.673.362a.524.524,0,0,0-.3.894l1.975,1.931a.524.524,0,0,1,.149.467l-.493,2.736a.524.524,0,0,0,.771.55l2.341-1.307a.523.523,0,0,1,.511,0l2.341,1.307a.524.524,0,0,0,.771-.55l-.493-2.736a.524.524,0,0,1,.149-.467l1.975-1.931a.524.524,0,0,0-.3-.894Zm1.28,1.608a.262.262,0,0,0-.148-.446l-1.9-.262a.262.262,0,0,1-.2-.15l-.82-1.781a.262.262,0,0,0-.476,0l-.82,1.781a.262.262,0,0,1-.2.15l-1.9.262a.262.262,0,0,0-.148.446l1.4,1.375a.262.262,0,0,1,.074.233l-.35,1.96a.262.262,0,0,0,.387.274l1.668-.939a.263.263,0,0,1,.257,0l1.668.939a.262.262,0,0,0,.387-.274l-.35-1.96a.262.262,0,0,1,.074-.233Z" transform="translate(-101.987 -0.452)" fill="#1756cc" fill-rule="evenodd"/>
</svg>
