<svg xmlns="http://www.w3.org/2000/svg" width="33.267" height="40.059" viewBox="0 0 33.267 40.059">
  <g id="baby-stroller-of-rounded-design-side-view" transform="translate(-31.449 0.001)">
    <path id="Path_4326" data-name="Path 4326" d="M61.257,11.78a1.009,1.009,0,0,0,1.407-.245,10.167,10.167,0,0,0,2.048-5.345,5.628,5.628,0,0,0-2.547-4.963C58.834-1.116,54.594-.034,51.85,3.87L33.167,31.1a.971.971,0,0,0-.1.181,5.065,5.065,0,1,0,3.454-1.368c-.032,0-.062,0-.093,0l1.215-1.771a13.893,13.893,0,0,0,7.515,2.1,16.272,16.272,0,0,0,2.473-.191,13.582,13.582,0,0,0,9.118-5.29,11.044,11.044,0,0,0,1.359-9.749A15.9,15.9,0,0,0,52.219,6.9l1.292-1.883C55.246,2.553,58.236.933,61,2.879a3.6,3.6,0,0,1,1.69,3.243,8.184,8.184,0,0,1-1.682,4.25A1.01,1.01,0,0,0,61.257,11.78ZM36.521,31.932a3.053,3.053,0,1,1-3.053,3.053A3.057,3.057,0,0,1,36.521,31.932ZM56.174,15.6a9.062,9.062,0,0,1-1.078,8,11.566,11.566,0,0,1-7.774,4.456,12.449,12.449,0,0,1-8.533-1.58L51.074,8.571A13.838,13.838,0,0,1,56.174,15.6Z" transform="translate(0 0)" fill="#0a0a0a"/>
    <path id="Path_4327" data-name="Path 4327" d="M199.8,276.989a5.073,5.073,0,1,0,5.073,5.073A5.08,5.08,0,0,0,199.8,276.989Zm0,8.126a3.053,3.053,0,1,1,3.053-3.053A3.056,3.056,0,0,1,199.8,285.115Z" transform="translate(-145.643 -247.077)" fill="#0a0a0a"/>
  </g>
</svg>
