<svg xmlns="http://www.w3.org/2000/svg" width="38" height="24.873" viewBox="0 0 38 24.873">
  <g id="tab-car" transform="translate(0 -8.463)">
    <path id="Path_4344" data-name="Path 4344" d="M35.646,16.4a1.135,1.135,0,0,0-.078-.087l-1.332-1.285c1.1-.251,2.293-1.176,2.293-2.125,0-1.106-1.535-1.5-2.845-1.5-1.37,0-1.529.938-1.545,1.6L28.7,9.7a4.849,4.849,0,0,0-3.012-1.235H12.307A4.851,4.851,0,0,0,9.3,9.7L5.861,13.01c-.018-.663-.177-1.6-1.545-1.6-1.311,0-2.846.392-2.846,1.5,0,.949,1.19,1.875,2.294,2.125L2.433,16.317c-.03.029-.051.057-.078.087A7.46,7.46,0,0,0,0,21.519v4.87a4.442,4.442,0,0,0,1.219,3.054v1.889a2.037,2.037,0,0,0,2.061,2H5.773a2.035,2.035,0,0,0,2.061-2v-.483H30.167v.483a2.035,2.035,0,0,0,2.061,2H34.72a2.035,2.035,0,0,0,2.061-2V29.443A4.439,4.439,0,0,0,38,26.389v-4.87A7.451,7.451,0,0,0,35.646,16.4ZM10.558,11.17a3.436,3.436,0,0,1,1.749-.708H25.695a3.436,3.436,0,0,1,1.749.708l4.505,4.366H6.053ZM1.546,20.782a2.136,2.136,0,0,1,2.1-2.172c1.158,0,4.942,2.221,4.942,3.42s-3.784.921-4.942.921A2.133,2.133,0,0,1,1.546,20.782Zm6.289,7.931h-.8l-2.369,0a4.505,4.505,0,0,1-1.45-.7,2.056,2.056,0,0,1-.392-.4,1.56,1.56,0,0,1-.22-.4,1.832,1.832,0,0,1,.314-1.6H6.962l2.7,3.095-1.823,0Zm16.98,0H13.186a2.2,2.2,0,0,1-2.2-2.2H27.012A2.2,2.2,0,0,1,24.815,28.715Zm.51-3.694H12.676c-1.318,0-2.389-1.626-2.389-3.63H27.714C27.714,23.4,26.644,25.021,25.326,25.021Zm10.072,2.2a1.571,1.571,0,0,1-.221.4,2.012,2.012,0,0,1-.392.4,4.465,4.465,0,0,1-1.45.7l-2.369,0H28.342l2.7-3.095h4.043A1.828,1.828,0,0,1,35.4,27.217Zm-1.039-4.266c-1.157,0-4.941.276-4.941-.921s3.784-3.42,4.941-3.42a2.172,2.172,0,0,1,0,4.342Z" fill="#d6d6d6"/>
  </g>
</svg>
