<svg xmlns="http://www.w3.org/2000/svg" width="24.167" height="26.494" viewBox="0 0 24.167 26.494">
  <path id="tab-note" d="M30.652,10.957H17.72A5.623,5.623,0,0,0,12.1,16.573v.882h5.044a1.346,1.346,0,1,1-.011,1.038H12.1v5.192h5.036a1.344,1.344,0,1,1,0,1.038H12.1V29.9h5.036a1.344,1.344,0,1,1,0,1.038H12.1v.9a5.623,5.623,0,0,0,5.617,5.617H30.652a5.623,5.623,0,0,0,5.617-5.617V16.573A5.623,5.623,0,0,0,30.652,10.957Zm1.879,18.794V28.623a.356.356,0,0,1,.711,0v1.129a.356.356,0,0,1-.711,0Zm.711-3.936a.356.356,0,0,1-.711,0V18.7a.356.356,0,0,1,.711,0Z" transform="translate(-12.103 -10.957)" fill="#d6d6d6"/>
</svg>
