<svg xmlns="http://www.w3.org/2000/svg" xmlns:xlink="http://www.w3.org/1999/xlink" width="97" height="93" viewBox="0 0 97 93">
  <defs>
    <filter id="Rectangle_2628" x="0" y="0" width="97" height="93" filterUnits="userSpaceOnUse">
      <feOffset dy="1" input="SourceAlpha"/>
      <feGaussianBlur stdDeviation="3.5" result="blur"/>
      <feFlood flood-opacity="0.102"/>
      <feComposite operator="in" in2="blur"/>
      <feComposite in="SourceGraphic"/>
    </filter>
  </defs>
  <g id="Group_2190" data-name="Group 2190" transform="translate(-248.5 -305.5)">
    <g transform="matrix(1, 0, 0, 1, 248.5, 305.5)" filter="url(#Rectangle_2628)">
      <rect id="Rectangle_2628-2" data-name="Rectangle 2628" width="76" height="72" rx="18" transform="translate(10.5 9.5)" fill="#d4d8ef"/>
    </g>
    <g id="Group_2165" data-name="Group 2165" transform="translate(281.873 335.944)">
      <path id="Path_4360" data-name="Path 4360" d="M15.127,2.747A12.309,12.309,0,1,0,27.5,15.056,12.353,12.353,0,0,0,15.127,2.747Zm0,22.156a9.847,9.847,0,1,1,9.895-9.847A9.883,9.883,0,0,1,15.127,24.9Z" fill="#1471c5"/>
      <path id="Path_4361" data-name="Path 4361" d="M15.357,8.345H12.883v6.664l4.073,4.053,1.749-1.74L15.357,13.99Z" transform="translate(1.007 0.557)" fill="#1471c5"/>
    </g>
  </g>
</svg>
