<svg xmlns="http://www.w3.org/2000/svg" xmlns:xlink="http://www.w3.org/1999/xlink" width="38" height="36" viewBox="0 0 38 36">
  <defs>
    <clipPath id="clip-path">
      <rect id="Rectangle_2564" data-name="Rectangle 2564" width="38" height="36" transform="translate(-0.212 0.477)" fill="#fff"/>
    </clipPath>
  </defs>
  <g id="Group_2128" data-name="Group 2128" transform="translate(0.212 -0.477)" clip-path="url(#clip-path)">
    <path id="Path_4325" data-name="Path 4325" d="M19.355,11.581,20.618,8.3a5.027,5.027,0,1,0-7.635,0l1.263,3.284a13.193,13.193,0,1,0,5.109,0ZM13.031,5.036a3.77,3.77,0,1,1,3.77,3.77A3.774,3.774,0,0,1,13.031,5.036Zm6.912,20.737a1.885,1.885,0,0,0-1.885,1.885v1.885a1.257,1.257,0,0,1-2.514,0V27.658a1.885,1.885,0,0,0-3.77,0v1.885a1.257,1.257,0,0,1-2.514,0V20.117a1.257,1.257,0,0,1,2.514,0V22a1.885,1.885,0,0,0,3.77,0v-.49a1.856,1.856,0,0,0,2.514,0V22a1.885,1.885,0,0,0,3.77,0V20.117a1.257,1.257,0,0,1,2.514,0v9.426a1.257,1.257,0,0,1-2.514,0V27.658A1.885,1.885,0,0,0,19.943,25.773ZM17.429,13.088v7.029a.628.628,0,1,1-1.257,0V13.088L14.859,9.672a5.021,5.021,0,0,0,3.885,0ZM14.7,36.279a11.939,11.939,0,0,1,0-23.507h0l.212.552v5.153a2.509,2.509,0,0,0-.628,1.643V22a.628.628,0,0,1-1.257,0V20.117a2.514,2.514,0,0,0-5.027,0v9.426a2.514,2.514,0,0,0,5.027,0V27.658a.628.628,0,0,1,1.257,0v1.885a2.514,2.514,0,0,0,5.027,0V27.658a.628.628,0,0,1,1.257,0v1.885a2.514,2.514,0,0,0,5.027,0V20.117a2.514,2.514,0,0,0-5.027,0V22a.628.628,0,0,1-1.257,0V20.117a2.51,2.51,0,0,0-.628-1.642V13.323l.212-.551A11.939,11.939,0,0,1,14.7,36.279Z" transform="translate(2.192 0.723)"/>
  </g>
</svg>
