<svg xmlns="http://www.w3.org/2000/svg" width="19.381" height="17.867" viewBox="0 0 19.381 17.867">
  <path id="transaction" d="M17.11,0H2.271A2.274,2.274,0,0,0,0,2.271V15.6a2.274,2.274,0,0,0,2.271,2.271H17.11A2.274,2.274,0,0,0,19.381,15.6V2.271A2.274,2.274,0,0,0,17.11,0ZM2.271,1.514H17.11a.758.758,0,0,1,.757.757V4.542H1.514V2.271A.758.758,0,0,1,2.271,1.514ZM17.11,16.353H2.271a.758.758,0,0,1-.757-.757V6.056H17.867V15.6A.758.758,0,0,1,17.11,16.353ZM2.65,3.028a.757.757,0,1,1,.757.757A.757.757,0,0,1,2.65,3.028Zm2.65,0a.757.757,0,1,1,.757.757A.757.757,0,0,1,5.3,3.028Zm7.822,4.007L15.777,9.69l-2.655,2.655-1.071-1.071.827-.827H8.9V8.933h3.983l-.827-.827ZM6.5,11.962H10.41v1.514H6.5l.827.827L6.259,15.374,3.6,12.719l2.655-2.655L7.33,11.134Zm0,0"/>
</svg>
